<mxfile host="app.diagrams.net" modified="2022-06-16T23:22:45.097Z" agent="5.0 (Macintosh; Intel Mac OS X 10_15_7) AppleWebKit/537.36 (KHTML, like Gecko) Chrome/102.0.5005.115 Safari/537.36" etag="jlEd2HbAhByP7avBc9Ft" version="20.0.1" type="github">
  <diagram id="Hmz8RY5wbIaIDFwMzhOo" name="Page-1">
    <mxGraphModel dx="2170" dy="724" grid="1" gridSize="10" guides="1" tooltips="1" connect="1" arrows="1" fold="1" page="1" pageScale="1" pageWidth="827" pageHeight="1169" math="0" shadow="0">
      <root>
        <mxCell id="0" />
        <mxCell id="1" parent="0" />
        <mxCell id="T0sSCAfz6Ab3Ifx0ExAp-1" value="VPC" style="points=[[0,0],[0.25,0],[0.5,0],[0.75,0],[1,0],[1,0.25],[1,0.5],[1,0.75],[1,1],[0.75,1],[0.5,1],[0.25,1],[0,1],[0,0.75],[0,0.5],[0,0.25]];outlineConnect=0;gradientColor=none;html=1;whiteSpace=wrap;fontSize=12;fontStyle=0;container=1;pointerEvents=0;collapsible=0;recursiveResize=0;shape=mxgraph.aws4.group;grIcon=mxgraph.aws4.group_vpc;strokeColor=#248814;fillColor=none;verticalAlign=top;align=left;spacingLeft=30;fontColor=#AAB7B8;dashed=0;" vertex="1" parent="1">
          <mxGeometry x="-140" y="80" width="600" height="1000" as="geometry" />
        </mxCell>
        <mxCell id="T0sSCAfz6Ab3Ifx0ExAp-9" value="Public subnet" style="points=[[0,0],[0.25,0],[0.5,0],[0.75,0],[1,0],[1,0.25],[1,0.5],[1,0.75],[1,1],[0.75,1],[0.5,1],[0.25,1],[0,1],[0,0.75],[0,0.5],[0,0.25]];outlineConnect=0;gradientColor=none;html=1;whiteSpace=wrap;fontSize=12;fontStyle=0;container=1;pointerEvents=0;collapsible=0;recursiveResize=0;shape=mxgraph.aws4.group;grIcon=mxgraph.aws4.group_security_group;grStroke=0;strokeColor=#248814;fillColor=#E9F3E6;verticalAlign=top;align=left;spacingLeft=30;fontColor=#248814;dashed=0;" vertex="1" parent="T0sSCAfz6Ab3Ifx0ExAp-1">
          <mxGeometry x="100" y="80" width="380" height="890" as="geometry" />
        </mxCell>
        <mxCell id="T0sSCAfz6Ab3Ifx0ExAp-10" value="Amazon EC2" style="sketch=0;outlineConnect=0;fontColor=#232F3E;gradientColor=none;strokeColor=#ffffff;fillColor=#232F3E;dashed=0;verticalLabelPosition=middle;verticalAlign=bottom;align=center;html=1;whiteSpace=wrap;fontSize=10;fontStyle=1;spacing=3;shape=mxgraph.aws4.productIcon;prIcon=mxgraph.aws4.ec2;" vertex="1" parent="T0sSCAfz6Ab3Ifx0ExAp-9">
          <mxGeometry x="135" y="42" width="50" height="80" as="geometry" />
        </mxCell>
        <mxCell id="T0sSCAfz6Ab3Ifx0ExAp-11" value="Amazon EC2" style="sketch=0;outlineConnect=0;fontColor=#232F3E;gradientColor=none;strokeColor=#ffffff;fillColor=#232F3E;dashed=0;verticalLabelPosition=middle;verticalAlign=bottom;align=center;html=1;whiteSpace=wrap;fontSize=10;fontStyle=1;spacing=3;shape=mxgraph.aws4.productIcon;prIcon=mxgraph.aws4.ec2;" vertex="1" parent="T0sSCAfz6Ab3Ifx0ExAp-9">
          <mxGeometry x="135" y="133.5" width="50" height="80" as="geometry" />
        </mxCell>
        <mxCell id="T0sSCAfz6Ab3Ifx0ExAp-12" value="Amazon EC2" style="sketch=0;outlineConnect=0;fontColor=#232F3E;gradientColor=none;strokeColor=#ffffff;fillColor=#232F3E;dashed=0;verticalLabelPosition=middle;verticalAlign=bottom;align=center;html=1;whiteSpace=wrap;fontSize=10;fontStyle=1;spacing=3;shape=mxgraph.aws4.productIcon;prIcon=mxgraph.aws4.ec2;" vertex="1" parent="T0sSCAfz6Ab3Ifx0ExAp-9">
          <mxGeometry x="135" y="230" width="50" height="80" as="geometry" />
        </mxCell>
        <mxCell id="T0sSCAfz6Ab3Ifx0ExAp-13" value="Amazon EC2" style="sketch=0;outlineConnect=0;fontColor=#232F3E;gradientColor=none;strokeColor=#ffffff;fillColor=#232F3E;dashed=0;verticalLabelPosition=middle;verticalAlign=bottom;align=center;html=1;whiteSpace=wrap;fontSize=10;fontStyle=1;spacing=3;shape=mxgraph.aws4.productIcon;prIcon=mxgraph.aws4.ec2;" vertex="1" parent="T0sSCAfz6Ab3Ifx0ExAp-9">
          <mxGeometry x="135" y="320" width="50" height="80" as="geometry" />
        </mxCell>
        <mxCell id="T0sSCAfz6Ab3Ifx0ExAp-27" value="" style="rounded=0;whiteSpace=wrap;html=1;" vertex="1" parent="T0sSCAfz6Ab3Ifx0ExAp-9">
          <mxGeometry x="190" y="30" width="150" height="90" as="geometry" />
        </mxCell>
        <mxCell id="T0sSCAfz6Ab3Ifx0ExAp-28" value="" style="sketch=0;aspect=fixed;html=1;points=[];align=center;image;fontSize=12;image=img/lib/mscae/Docker.svg;" vertex="1" parent="T0sSCAfz6Ab3Ifx0ExAp-9">
          <mxGeometry x="190" y="31" width="35.37" height="29" as="geometry" />
        </mxCell>
        <mxCell id="T0sSCAfz6Ab3Ifx0ExAp-29" value="" style="shape=image;verticalLabelPosition=bottom;labelBackgroundColor=default;verticalAlign=top;aspect=fixed;imageAspect=0;image=https://upload.wikimedia.org/wikipedia/commons/thumb/0/0e/Hadoop_logo.svg/1200px-Hadoop_logo.svg.png;" vertex="1" parent="T0sSCAfz6Ab3Ifx0ExAp-9">
          <mxGeometry x="225.37" y="52" width="104" height="27" as="geometry" />
        </mxCell>
        <mxCell id="T0sSCAfz6Ab3Ifx0ExAp-30" value="" style="shape=image;verticalLabelPosition=bottom;labelBackgroundColor=default;verticalAlign=top;aspect=fixed;imageAspect=0;image=https://st2.depositphotos.com/47577860/46264/v/600/depositphotos_462647462-stock-illustration-data-database-hadoop-icon-in.jpg;" vertex="1" parent="T0sSCAfz6Ab3Ifx0ExAp-9">
          <mxGeometry x="260" y="78" width="42" height="42" as="geometry" />
        </mxCell>
        <mxCell id="T0sSCAfz6Ab3Ifx0ExAp-31" value="" style="shape=image;html=1;verticalAlign=top;verticalLabelPosition=bottom;labelBackgroundColor=#ffffff;imageAspect=0;aspect=fixed;image=https://cdn3.iconfinder.com/data/icons/cad-database-presentation-spreadsheet-vector-fil-2/512/19-128.png" vertex="1" parent="T0sSCAfz6Ab3Ifx0ExAp-9">
          <mxGeometry x="302" y="82" width="38" height="38" as="geometry" />
        </mxCell>
        <mxCell id="T0sSCAfz6Ab3Ifx0ExAp-35" value="" style="rounded=0;whiteSpace=wrap;html=1;fillColor=#f5f5f5;fontColor=#333333;strokeColor=#666666;" vertex="1" parent="T0sSCAfz6Ab3Ifx0ExAp-9">
          <mxGeometry x="50" y="460" width="270" height="280" as="geometry" />
        </mxCell>
        <mxCell id="T0sSCAfz6Ab3Ifx0ExAp-49" style="edgeStyle=orthogonalEdgeStyle;rounded=0;orthogonalLoop=1;jettySize=auto;html=1;startArrow=classic;startFill=0;" edge="1" parent="T0sSCAfz6Ab3Ifx0ExAp-9" source="T0sSCAfz6Ab3Ifx0ExAp-32" target="T0sSCAfz6Ab3Ifx0ExAp-33">
          <mxGeometry relative="1" as="geometry" />
        </mxCell>
        <mxCell id="T0sSCAfz6Ab3Ifx0ExAp-50" style="edgeStyle=orthogonalEdgeStyle;rounded=0;orthogonalLoop=1;jettySize=auto;html=1;" edge="1" parent="T0sSCAfz6Ab3Ifx0ExAp-9" source="T0sSCAfz6Ab3Ifx0ExAp-32" target="T0sSCAfz6Ab3Ifx0ExAp-34">
          <mxGeometry relative="1" as="geometry" />
        </mxCell>
        <mxCell id="T0sSCAfz6Ab3Ifx0ExAp-32" value="Master" style="sketch=0;outlineConnect=0;fontColor=#232F3E;gradientColor=none;strokeColor=#ffffff;fillColor=#232F3E;dashed=0;verticalLabelPosition=middle;verticalAlign=bottom;align=center;html=1;whiteSpace=wrap;fontSize=10;fontStyle=1;spacing=3;shape=mxgraph.aws4.productIcon;prIcon=mxgraph.aws4.ec2;" vertex="1" parent="T0sSCAfz6Ab3Ifx0ExAp-9">
          <mxGeometry x="105" y="540" width="50" height="80" as="geometry" />
        </mxCell>
        <mxCell id="T0sSCAfz6Ab3Ifx0ExAp-33" value="Slave" style="sketch=0;outlineConnect=0;fontColor=#232F3E;gradientColor=none;strokeColor=#ffffff;fillColor=#232F3E;dashed=0;verticalLabelPosition=middle;verticalAlign=bottom;align=center;html=1;whiteSpace=wrap;fontSize=10;fontStyle=1;spacing=3;shape=mxgraph.aws4.productIcon;prIcon=mxgraph.aws4.ec2;" vertex="1" parent="T0sSCAfz6Ab3Ifx0ExAp-9">
          <mxGeometry x="210" y="480" width="50" height="80" as="geometry" />
        </mxCell>
        <mxCell id="T0sSCAfz6Ab3Ifx0ExAp-34" value="Slave" style="sketch=0;outlineConnect=0;fontColor=#232F3E;gradientColor=none;strokeColor=#ffffff;fillColor=#232F3E;dashed=0;verticalLabelPosition=middle;verticalAlign=bottom;align=center;html=1;whiteSpace=wrap;fontSize=10;fontStyle=1;spacing=3;shape=mxgraph.aws4.productIcon;prIcon=mxgraph.aws4.ec2;" vertex="1" parent="T0sSCAfz6Ab3Ifx0ExAp-9">
          <mxGeometry x="210" y="600" width="50" height="80" as="geometry" />
        </mxCell>
        <mxCell id="T0sSCAfz6Ab3Ifx0ExAp-36" value="" style="sketch=0;points=[[0,0,0],[0.25,0,0],[0.5,0,0],[0.75,0,0],[1,0,0],[0,1,0],[0.25,1,0],[0.5,1,0],[0.75,1,0],[1,1,0],[0,0.25,0],[0,0.5,0],[0,0.75,0],[1,0.25,0],[1,0.5,0],[1,0.75,0]];outlineConnect=0;fontColor=#232F3E;gradientColor=#945DF2;gradientDirection=north;fillColor=#5A30B5;strokeColor=#ffffff;dashed=0;verticalLabelPosition=bottom;verticalAlign=top;align=center;html=1;fontSize=12;fontStyle=0;aspect=fixed;shape=mxgraph.aws4.resourceIcon;resIcon=mxgraph.aws4.emr;" vertex="1" parent="T0sSCAfz6Ab3Ifx0ExAp-9">
          <mxGeometry x="50" y="690" width="50" height="50" as="geometry" />
        </mxCell>
        <mxCell id="T0sSCAfz6Ab3Ifx0ExAp-37" value="EMR - Cluster de Apache Hadoop" style="text;html=1;strokeColor=none;fillColor=none;align=left;verticalAlign=middle;whiteSpace=wrap;rounded=0;" vertex="1" parent="T0sSCAfz6Ab3Ifx0ExAp-9">
          <mxGeometry x="110" y="700" width="130" height="30" as="geometry" />
        </mxCell>
        <mxCell id="T0sSCAfz6Ab3Ifx0ExAp-47" value="HDFS" style="shape=image;verticalLabelPosition=bottom;labelBackgroundColor=default;verticalAlign=top;aspect=fixed;imageAspect=0;image=https://st2.depositphotos.com/47577860/46264/v/600/depositphotos_462647462-stock-illustration-data-database-hadoop-icon-in.jpg;" vertex="1" parent="T0sSCAfz6Ab3Ifx0ExAp-9">
          <mxGeometry x="270" y="560" width="42" height="42" as="geometry" />
        </mxCell>
        <mxCell id="T0sSCAfz6Ab3Ifx0ExAp-48" value="" style="shape=image;verticalLabelPosition=bottom;labelBackgroundColor=default;verticalAlign=top;aspect=fixed;imageAspect=0;image=https://upload.wikimedia.org/wikipedia/commons/thumb/b/bb/Apache_Hive_logo.svg/1200px-Apache_Hive_logo.svg.png;" vertex="1" parent="T0sSCAfz6Ab3Ifx0ExAp-9">
          <mxGeometry x="80" y="500" width="51.67" height="46.5" as="geometry" />
        </mxCell>
        <mxCell id="T0sSCAfz6Ab3Ifx0ExAp-51" value="" style="shape=image;verticalLabelPosition=bottom;labelBackgroundColor=default;verticalAlign=top;aspect=fixed;imageAspect=0;image=https://e7.pngegg.com/pngimages/193/980/png-clipart-computer-icons-microsoft-sql-server-mysql-sql-icon-text-rectangle.png;" vertex="1" parent="T0sSCAfz6Ab3Ifx0ExAp-9">
          <mxGeometry x="65.6" y="585" width="39.4" height="35" as="geometry" />
        </mxCell>
        <mxCell id="T0sSCAfz6Ab3Ifx0ExAp-52" value="" style="rounded=0;whiteSpace=wrap;html=1;" vertex="1" parent="T0sSCAfz6Ab3Ifx0ExAp-9">
          <mxGeometry x="190" y="128.5" width="150" height="90" as="geometry" />
        </mxCell>
        <mxCell id="T0sSCAfz6Ab3Ifx0ExAp-53" value="" style="sketch=0;aspect=fixed;html=1;points=[];align=center;image;fontSize=12;image=img/lib/mscae/Docker.svg;" vertex="1" parent="T0sSCAfz6Ab3Ifx0ExAp-9">
          <mxGeometry x="190" y="129.5" width="35.37" height="29" as="geometry" />
        </mxCell>
        <mxCell id="T0sSCAfz6Ab3Ifx0ExAp-54" value="" style="shape=image;verticalLabelPosition=bottom;labelBackgroundColor=default;verticalAlign=top;aspect=fixed;imageAspect=0;image=https://upload.wikimedia.org/wikipedia/commons/thumb/0/0e/Hadoop_logo.svg/1200px-Hadoop_logo.svg.png;" vertex="1" parent="T0sSCAfz6Ab3Ifx0ExAp-9">
          <mxGeometry x="225.37" y="150.5" width="104" height="27" as="geometry" />
        </mxCell>
        <mxCell id="T0sSCAfz6Ab3Ifx0ExAp-55" value="" style="shape=image;verticalLabelPosition=bottom;labelBackgroundColor=default;verticalAlign=top;aspect=fixed;imageAspect=0;image=https://st2.depositphotos.com/47577860/46264/v/600/depositphotos_462647462-stock-illustration-data-database-hadoop-icon-in.jpg;" vertex="1" parent="T0sSCAfz6Ab3Ifx0ExAp-9">
          <mxGeometry x="260" y="176.5" width="42" height="42" as="geometry" />
        </mxCell>
        <mxCell id="T0sSCAfz6Ab3Ifx0ExAp-56" value="" style="shape=image;html=1;verticalAlign=top;verticalLabelPosition=bottom;labelBackgroundColor=#ffffff;imageAspect=0;aspect=fixed;image=https://cdn3.iconfinder.com/data/icons/cad-database-presentation-spreadsheet-vector-fil-2/512/19-128.png" vertex="1" parent="T0sSCAfz6Ab3Ifx0ExAp-9">
          <mxGeometry x="302" y="180.5" width="38" height="38" as="geometry" />
        </mxCell>
        <mxCell id="T0sSCAfz6Ab3Ifx0ExAp-57" value="" style="rounded=0;whiteSpace=wrap;html=1;" vertex="1" parent="T0sSCAfz6Ab3Ifx0ExAp-9">
          <mxGeometry x="190" y="225" width="150" height="90" as="geometry" />
        </mxCell>
        <mxCell id="T0sSCAfz6Ab3Ifx0ExAp-58" value="" style="sketch=0;aspect=fixed;html=1;points=[];align=center;image;fontSize=12;image=img/lib/mscae/Docker.svg;" vertex="1" parent="T0sSCAfz6Ab3Ifx0ExAp-9">
          <mxGeometry x="190" y="226" width="35.37" height="29" as="geometry" />
        </mxCell>
        <mxCell id="T0sSCAfz6Ab3Ifx0ExAp-59" value="" style="shape=image;verticalLabelPosition=bottom;labelBackgroundColor=default;verticalAlign=top;aspect=fixed;imageAspect=0;image=https://upload.wikimedia.org/wikipedia/commons/thumb/0/0e/Hadoop_logo.svg/1200px-Hadoop_logo.svg.png;" vertex="1" parent="T0sSCAfz6Ab3Ifx0ExAp-9">
          <mxGeometry x="225.37" y="247" width="104" height="27" as="geometry" />
        </mxCell>
        <mxCell id="T0sSCAfz6Ab3Ifx0ExAp-60" value="" style="shape=image;verticalLabelPosition=bottom;labelBackgroundColor=default;verticalAlign=top;aspect=fixed;imageAspect=0;image=https://st2.depositphotos.com/47577860/46264/v/600/depositphotos_462647462-stock-illustration-data-database-hadoop-icon-in.jpg;" vertex="1" parent="T0sSCAfz6Ab3Ifx0ExAp-9">
          <mxGeometry x="260" y="273" width="42" height="42" as="geometry" />
        </mxCell>
        <mxCell id="T0sSCAfz6Ab3Ifx0ExAp-61" value="" style="shape=image;html=1;verticalAlign=top;verticalLabelPosition=bottom;labelBackgroundColor=#ffffff;imageAspect=0;aspect=fixed;image=https://cdn3.iconfinder.com/data/icons/cad-database-presentation-spreadsheet-vector-fil-2/512/19-128.png" vertex="1" parent="T0sSCAfz6Ab3Ifx0ExAp-9">
          <mxGeometry x="302" y="277" width="38" height="38" as="geometry" />
        </mxCell>
        <mxCell id="T0sSCAfz6Ab3Ifx0ExAp-62" value="" style="rounded=0;whiteSpace=wrap;html=1;" vertex="1" parent="T0sSCAfz6Ab3Ifx0ExAp-9">
          <mxGeometry x="190" y="320" width="150" height="90" as="geometry" />
        </mxCell>
        <mxCell id="T0sSCAfz6Ab3Ifx0ExAp-63" value="" style="sketch=0;aspect=fixed;html=1;points=[];align=center;image;fontSize=12;image=img/lib/mscae/Docker.svg;" vertex="1" parent="T0sSCAfz6Ab3Ifx0ExAp-9">
          <mxGeometry x="190" y="321" width="35.37" height="29" as="geometry" />
        </mxCell>
        <mxCell id="T0sSCAfz6Ab3Ifx0ExAp-64" value="" style="shape=image;verticalLabelPosition=bottom;labelBackgroundColor=default;verticalAlign=top;aspect=fixed;imageAspect=0;image=https://upload.wikimedia.org/wikipedia/commons/thumb/0/0e/Hadoop_logo.svg/1200px-Hadoop_logo.svg.png;" vertex="1" parent="T0sSCAfz6Ab3Ifx0ExAp-9">
          <mxGeometry x="225.37" y="342" width="104" height="27" as="geometry" />
        </mxCell>
        <mxCell id="T0sSCAfz6Ab3Ifx0ExAp-65" value="" style="shape=image;verticalLabelPosition=bottom;labelBackgroundColor=default;verticalAlign=top;aspect=fixed;imageAspect=0;image=https://st2.depositphotos.com/47577860/46264/v/600/depositphotos_462647462-stock-illustration-data-database-hadoop-icon-in.jpg;" vertex="1" parent="T0sSCAfz6Ab3Ifx0ExAp-9">
          <mxGeometry x="260" y="368" width="42" height="42" as="geometry" />
        </mxCell>
        <mxCell id="T0sSCAfz6Ab3Ifx0ExAp-66" value="" style="shape=image;html=1;verticalAlign=top;verticalLabelPosition=bottom;labelBackgroundColor=#ffffff;imageAspect=0;aspect=fixed;image=https://cdn3.iconfinder.com/data/icons/cad-database-presentation-spreadsheet-vector-fil-2/512/19-128.png" vertex="1" parent="T0sSCAfz6Ab3Ifx0ExAp-9">
          <mxGeometry x="302" y="372" width="38" height="38" as="geometry" />
        </mxCell>
        <mxCell id="T0sSCAfz6Ab3Ifx0ExAp-2" value="" style="sketch=0;outlineConnect=0;fontColor=#232F3E;gradientColor=none;fillColor=#232F3D;strokeColor=none;dashed=0;verticalLabelPosition=bottom;verticalAlign=top;align=center;html=1;fontSize=12;fontStyle=0;aspect=fixed;pointerEvents=1;shape=mxgraph.aws4.user;" vertex="1" parent="1">
          <mxGeometry x="-590" y="260" width="48" height="48" as="geometry" />
        </mxCell>
        <mxCell id="T0sSCAfz6Ab3Ifx0ExAp-3" value="Usuario" style="text;html=1;strokeColor=none;fillColor=none;align=center;verticalAlign=middle;whiteSpace=wrap;rounded=0;" vertex="1" parent="1">
          <mxGeometry x="-596" y="308" width="60" height="30" as="geometry" />
        </mxCell>
        <mxCell id="T0sSCAfz6Ab3Ifx0ExAp-8" style="edgeStyle=orthogonalEdgeStyle;rounded=0;orthogonalLoop=1;jettySize=auto;html=1;" edge="1" parent="1" source="T0sSCAfz6Ab3Ifx0ExAp-4" target="T0sSCAfz6Ab3Ifx0ExAp-6">
          <mxGeometry relative="1" as="geometry" />
        </mxCell>
        <mxCell id="T0sSCAfz6Ab3Ifx0ExAp-4" value="" style="verticalLabelPosition=bottom;sketch=0;aspect=fixed;html=1;verticalAlign=top;strokeColor=none;align=center;outlineConnect=0;shape=mxgraph.citrix.laptop_2;" vertex="1" parent="1">
          <mxGeometry x="-536" y="270" width="64.37" height="48" as="geometry" />
        </mxCell>
        <mxCell id="T0sSCAfz6Ab3Ifx0ExAp-5" value="" style="shape=image;verticalLabelPosition=bottom;labelBackgroundColor=default;verticalAlign=top;aspect=fixed;imageAspect=0;image=https://updov.com/wp-content/uploads/2021/09/index.jpg;" vertex="1" parent="1">
          <mxGeometry x="-490" y="308" width="48.13" height="51" as="geometry" />
        </mxCell>
        <mxCell id="T0sSCAfz6Ab3Ifx0ExAp-14" style="edgeStyle=orthogonalEdgeStyle;rounded=0;orthogonalLoop=1;jettySize=auto;html=1;" edge="1" parent="1" source="T0sSCAfz6Ab3Ifx0ExAp-6" target="T0sSCAfz6Ab3Ifx0ExAp-10">
          <mxGeometry relative="1" as="geometry" />
        </mxCell>
        <mxCell id="T0sSCAfz6Ab3Ifx0ExAp-6" value="" style="aspect=fixed;perimeter=ellipsePerimeter;html=1;align=center;shadow=0;dashed=0;spacingTop=3;image;image=img/lib/active_directory/internet_cloud.svg;" vertex="1" parent="1">
          <mxGeometry x="-360" y="254" width="126.98" height="80" as="geometry" />
        </mxCell>
        <mxCell id="T0sSCAfz6Ab3Ifx0ExAp-7" value="Internet" style="text;html=1;strokeColor=none;fillColor=none;align=center;verticalAlign=middle;whiteSpace=wrap;rounded=0;" vertex="1" parent="1">
          <mxGeometry x="-326.51" y="282" width="60" height="30" as="geometry" />
        </mxCell>
        <mxCell id="T0sSCAfz6Ab3Ifx0ExAp-15" value="" style="sketch=0;outlineConnect=0;fontColor=#232F3E;gradientColor=none;fillColor=#232F3D;strokeColor=none;dashed=0;verticalLabelPosition=bottom;verticalAlign=top;align=center;html=1;fontSize=12;fontStyle=0;aspect=fixed;pointerEvents=1;shape=mxgraph.aws4.user;" vertex="1" parent="1">
          <mxGeometry x="-590" y="426" width="48" height="48" as="geometry" />
        </mxCell>
        <mxCell id="T0sSCAfz6Ab3Ifx0ExAp-16" value="Usuario" style="text;html=1;strokeColor=none;fillColor=none;align=center;verticalAlign=middle;whiteSpace=wrap;rounded=0;" vertex="1" parent="1">
          <mxGeometry x="-596" y="474" width="60" height="30" as="geometry" />
        </mxCell>
        <mxCell id="T0sSCAfz6Ab3Ifx0ExAp-17" style="edgeStyle=orthogonalEdgeStyle;rounded=0;orthogonalLoop=1;jettySize=auto;html=1;" edge="1" parent="1" source="T0sSCAfz6Ab3Ifx0ExAp-18" target="T0sSCAfz6Ab3Ifx0ExAp-20">
          <mxGeometry relative="1" as="geometry" />
        </mxCell>
        <mxCell id="T0sSCAfz6Ab3Ifx0ExAp-18" value="" style="verticalLabelPosition=bottom;sketch=0;aspect=fixed;html=1;verticalAlign=top;strokeColor=none;align=center;outlineConnect=0;shape=mxgraph.citrix.laptop_2;" vertex="1" parent="1">
          <mxGeometry x="-536" y="436" width="64.37" height="48" as="geometry" />
        </mxCell>
        <mxCell id="T0sSCAfz6Ab3Ifx0ExAp-19" value="" style="shape=image;verticalLabelPosition=bottom;labelBackgroundColor=default;verticalAlign=top;aspect=fixed;imageAspect=0;image=https://updov.com/wp-content/uploads/2021/09/index.jpg;" vertex="1" parent="1">
          <mxGeometry x="-490" y="474" width="48.13" height="51" as="geometry" />
        </mxCell>
        <mxCell id="T0sSCAfz6Ab3Ifx0ExAp-22" style="edgeStyle=orthogonalEdgeStyle;rounded=0;orthogonalLoop=1;jettySize=auto;html=1;" edge="1" parent="1" source="T0sSCAfz6Ab3Ifx0ExAp-20" target="T0sSCAfz6Ab3Ifx0ExAp-12">
          <mxGeometry relative="1" as="geometry" />
        </mxCell>
        <mxCell id="T0sSCAfz6Ab3Ifx0ExAp-20" value="" style="aspect=fixed;perimeter=ellipsePerimeter;html=1;align=center;shadow=0;dashed=0;spacingTop=3;image;image=img/lib/active_directory/internet_cloud.svg;" vertex="1" parent="1">
          <mxGeometry x="-360" y="420" width="126.98" height="80" as="geometry" />
        </mxCell>
        <mxCell id="T0sSCAfz6Ab3Ifx0ExAp-21" value="Internet" style="text;html=1;strokeColor=none;fillColor=none;align=center;verticalAlign=middle;whiteSpace=wrap;rounded=0;" vertex="1" parent="1">
          <mxGeometry x="-326.51" y="448" width="60" height="30" as="geometry" />
        </mxCell>
        <mxCell id="T0sSCAfz6Ab3Ifx0ExAp-23" value="ssh" style="text;html=1;strokeColor=none;fillColor=none;align=center;verticalAlign=middle;whiteSpace=wrap;rounded=0;" vertex="1" parent="1">
          <mxGeometry x="-443" y="260" width="60" height="30" as="geometry" />
        </mxCell>
        <mxCell id="T0sSCAfz6Ab3Ifx0ExAp-24" value="ssh" style="text;html=1;strokeColor=none;fillColor=none;align=center;verticalAlign=middle;whiteSpace=wrap;rounded=0;" vertex="1" parent="1">
          <mxGeometry x="-210" y="260" width="60" height="30" as="geometry" />
        </mxCell>
        <mxCell id="T0sSCAfz6Ab3Ifx0ExAp-25" value="" style="shape=image;html=1;verticalAlign=top;verticalLabelPosition=bottom;labelBackgroundColor=#ffffff;imageAspect=0;aspect=fixed;image=https://cdn3.iconfinder.com/data/icons/cad-database-presentation-spreadsheet-vector-fil-2/512/19-128.png" vertex="1" parent="1">
          <mxGeometry x="-315.51" y="210" width="38" height="38" as="geometry" />
        </mxCell>
        <mxCell id="T0sSCAfz6Ab3Ifx0ExAp-26" value="" style="shape=image;html=1;verticalAlign=top;verticalLabelPosition=bottom;labelBackgroundColor=#ffffff;imageAspect=0;aspect=fixed;image=https://cdn3.iconfinder.com/data/icons/cad-database-presentation-spreadsheet-vector-fil-2/512/19-128.png" vertex="1" parent="1">
          <mxGeometry x="-315.51" y="382" width="38" height="38" as="geometry" />
        </mxCell>
        <mxCell id="T0sSCAfz6Ab3Ifx0ExAp-38" value="" style="sketch=0;outlineConnect=0;fontColor=#232F3E;gradientColor=none;fillColor=#232F3D;strokeColor=none;dashed=0;verticalLabelPosition=bottom;verticalAlign=top;align=center;html=1;fontSize=12;fontStyle=0;aspect=fixed;pointerEvents=1;shape=mxgraph.aws4.user;" vertex="1" parent="1">
          <mxGeometry x="-590" y="706" width="48" height="48" as="geometry" />
        </mxCell>
        <mxCell id="T0sSCAfz6Ab3Ifx0ExAp-39" value="Profesor" style="text;html=1;strokeColor=none;fillColor=none;align=center;verticalAlign=middle;whiteSpace=wrap;rounded=0;" vertex="1" parent="1">
          <mxGeometry x="-596" y="754" width="60" height="30" as="geometry" />
        </mxCell>
        <mxCell id="T0sSCAfz6Ab3Ifx0ExAp-40" style="edgeStyle=orthogonalEdgeStyle;rounded=0;orthogonalLoop=1;jettySize=auto;html=1;" edge="1" parent="1" source="T0sSCAfz6Ab3Ifx0ExAp-41" target="T0sSCAfz6Ab3Ifx0ExAp-43">
          <mxGeometry relative="1" as="geometry" />
        </mxCell>
        <mxCell id="T0sSCAfz6Ab3Ifx0ExAp-41" value="" style="verticalLabelPosition=bottom;sketch=0;aspect=fixed;html=1;verticalAlign=top;strokeColor=none;align=center;outlineConnect=0;shape=mxgraph.citrix.laptop_2;" vertex="1" parent="1">
          <mxGeometry x="-536" y="716" width="64.37" height="48" as="geometry" />
        </mxCell>
        <mxCell id="T0sSCAfz6Ab3Ifx0ExAp-42" value="" style="shape=image;verticalLabelPosition=bottom;labelBackgroundColor=default;verticalAlign=top;aspect=fixed;imageAspect=0;image=https://updov.com/wp-content/uploads/2021/09/index.jpg;" vertex="1" parent="1">
          <mxGeometry x="-490" y="754" width="48.13" height="51" as="geometry" />
        </mxCell>
        <mxCell id="T0sSCAfz6Ab3Ifx0ExAp-46" style="edgeStyle=orthogonalEdgeStyle;rounded=0;orthogonalLoop=1;jettySize=auto;html=1;" edge="1" parent="1" source="T0sSCAfz6Ab3Ifx0ExAp-43" target="T0sSCAfz6Ab3Ifx0ExAp-32">
          <mxGeometry relative="1" as="geometry" />
        </mxCell>
        <mxCell id="T0sSCAfz6Ab3Ifx0ExAp-43" value="" style="aspect=fixed;perimeter=ellipsePerimeter;html=1;align=center;shadow=0;dashed=0;spacingTop=3;image;image=img/lib/active_directory/internet_cloud.svg;" vertex="1" parent="1">
          <mxGeometry x="-360" y="700" width="126.98" height="80" as="geometry" />
        </mxCell>
        <mxCell id="T0sSCAfz6Ab3Ifx0ExAp-44" value="Internet" style="text;html=1;strokeColor=none;fillColor=none;align=center;verticalAlign=middle;whiteSpace=wrap;rounded=0;" vertex="1" parent="1">
          <mxGeometry x="-326.51" y="728" width="60" height="30" as="geometry" />
        </mxCell>
        <mxCell id="T0sSCAfz6Ab3Ifx0ExAp-45" value="" style="shape=image;html=1;verticalAlign=top;verticalLabelPosition=bottom;labelBackgroundColor=#ffffff;imageAspect=0;aspect=fixed;image=https://cdn3.iconfinder.com/data/icons/cad-database-presentation-spreadsheet-vector-fil-2/512/19-128.png" vertex="1" parent="1">
          <mxGeometry x="-315.51" y="662" width="38" height="38" as="geometry" />
        </mxCell>
      </root>
    </mxGraphModel>
  </diagram>
</mxfile>
